<?xml version="1.0" encoding="UTF-8" standalone="no"?>
<!DOCTYPE svg PUBLIC "-//W3C//DTD SVG 1.1//EN" "http://www.w3.org/Graphics/SVG/1.1/DTD/svg11.dtd">
<svg xmlns:xl="http://www.w3.org/1999/xlink" xmlns="http://www.w3.org/2000/svg" xmlns:dc="http://purl.org/dc/elements/1.1/" version="1.1" viewBox="-850 990 502 152" width="502" height="152">
  <defs>
    <linearGradient x1="0" x2="1" id="Gradient" gradientUnits="userSpaceOnUse">
      <stop offset="0" stop-color="#213443"/>
      <stop offset=".24894832" stop-color="#6b7a86"/>
      <stop offset="1" stop-color="#a7b5bf"/>
    </linearGradient>
    <linearGradient id="Obj_Gradient" xl:href="#Gradient" gradientTransform="translate(-374 1066) rotate(180) scale(450)"/>
  </defs>
  <metadata> Produced by OmniGraffle 7.19.5\n2022-08-10 16:50:11 +0000</metadata>
  <g id="Launch_Expert_Window" stroke-dasharray="none" fill-opacity="1" stroke-opacity="1" stroke="none" fill="none">
    <title>Launch Expert Window</title>
    <g id="Launch_Expert_Window_Layer_1">
      <title>Layer 1</title>
      <g id="Group_6">
        <g id="Graphic_4">
          <path d="M -829 991 L -369 991 C -357.9543 991 -349 999.9543 -349 1011 L -349 1121 C -349 1132.0457 -357.9543 1141 -369 1141 L -829 1141 C -840.0457 1141 -849 1132.0457 -849 1121 L -849 1011 C -849 999.9543 -840.0457 991 -829 991 Z" fill="#c2ccd7"/>
          <path d="M -829 991 L -369 991 C -357.9543 991 -349 999.9543 -349 1011 L -349 1121 C -349 1132.0457 -357.9543 1141 -369 1141 L -829 1141 C -840.0457 1141 -849 1132.0457 -849 1121 L -849 1011 C -849 999.9543 -840.0457 991 -829 991 Z" stroke="gray" stroke-linecap="round" stroke-linejoin="round" stroke-width="1"/>
        </g>
        <g id="Graphic_5">
          <path d="M -814 1011 L -384 1011 C -378.47715 1011 -374 1015.4772 -374 1021 L -374 1111 C -374 1116.5228 -378.47715 1121 -384 1121 L -814 1121 C -819.5228 1121 -824 1116.5228 -824 1111 L -824 1021 C -824 1015.4772 -819.5228 1011 -814 1011 Z" fill="url(#Obj_Gradient)"/>
          <path d="M -814 1011 L -384 1011 C -378.47715 1011 -374 1015.4772 -374 1021 L -374 1111 C -374 1116.5228 -378.47715 1121 -384 1121 L -814 1121 C -819.5228 1121 -824 1116.5228 -824 1111 L -824 1021 C -824 1015.4772 -819.5228 1011 -814 1011 Z" stroke="gray" stroke-linecap="round" stroke-linejoin="round" stroke-width="1"/>
          <text transform="translate(-819 1044.9111)" fill="white">
            <tspan font-family="Arial" font-size="36" fill="white" x="34.902344" y="33">Launch Expert Window</tspan>
          </text>
        </g>
      </g>
    </g>
  </g>
</svg>
